<?xml version="1.0" standalone="no"?>
<!DOCTYPE svg PUBLIC "-//W3C//DTD SVG 1.1//EN" "http://www.w3.org/Graphics/SVG/1.1/DTD/svg11.dtd" >
<svg xmlns="http://www.w3.org/2000/svg">
<metadata>Generated by IcoMoon</metadata>
<defs>
<font id="icomoon" horiz-adv-x="1024">
<font-face units-per-em="1024" ascent="960" descent="-64" />
<missing-glyph horiz-adv-x="1024" />
<glyph unicode="&#x20;" horiz-adv-x="512" d="" />
<glyph unicode="&#xe900;" glyph-name="bus" d="M1006.934 652.8h-955.734c-9.42 0-17.066-7.646-17.066-17.066v-180.668l-29.134-29.134c-3.208-3.208-5-7.544-5-12.066v-119.466c0-9.42 7.646-17.066 17.066-17.066h231.356c11.844-20.31 33.622-34.134 58.778-34.134s46.934 13.824 58.778 34.134h343.262c11.844-20.31 33.622-34.134 58.778-34.134 25.652 0 47.77 14.388 59.426 35.346l182.546 33.194c8.106 1.484 14.012 8.55 14.012 16.794v307.2c-0.002 9.42-7.648 17.066-17.068 17.066zM187.734 371.2c0-4.71-3.822-8.534-8.534-8.534h-68.266c-4.71 0-8.534 3.822-8.534 8.534v187.734c0 4.71 3.822 8.534 8.534 8.534h68.266c4.71 0 8.534-3.822 8.534-8.534v-187.734zM307.2 277.334c-18.824 0-34.134 15.308-34.134 34.134s15.31 34.132 34.134 34.132c18.824 0 34.134-15.308 34.134-34.134s-15.31-34.132-34.134-34.132zM375.466 490.666c0-4.71-3.822-8.534-8.534-8.534h-136.532c-4.71 0-8.534 3.822-8.534 8.534v68.266c0 4.71 3.822 8.534 8.534 8.534h136.534c4.71 0 8.534-3.822 8.534-8.534v-68.266zM580.266 490.666c0-4.71-3.822-8.534-8.534-8.534h-153.6c-4.71 0-8.534 3.822-8.534 8.534v68.266c0 4.71 3.822 8.534 8.534 8.534h153.6c4.71 0 8.534-3.822 8.534-8.534v-68.266zM622.934 482.134c-4.71 0-8.534 3.822-8.534 8.534v68.266c0 4.71 3.822 8.534 8.534 8.534h153.6c4.71 0 8.534-3.822 8.534-8.534v-68.266c0-4.71-3.822-8.534-8.534-8.534h-153.6zM768 277.334c-18.824 0-34.134 15.308-34.134 34.134s15.31 34.132 34.134 34.132c18.824 0 34.134-15.308 34.134-34.134s-15.31-34.132-34.134-34.132zM989.866 490.666c0-4.71-3.822-8.534-8.534-8.534h-153.6c-4.71 0-8.534 3.822-8.534 8.534v68.266c0 4.71 3.822 8.534 8.534 8.534h153.6c4.71 0 8.534-3.822 8.534-8.534v-68.266z" />
<glyph unicode="&#xe901;" glyph-name="car" d="M175.173 447.979c-42.451 0-76.865-34.394-76.865-76.855 0-3.287 0.268-6.502 0.68-9.665 4.76-37.887 37.021-67.19 76.185-67.19 40.246 0 73.208 30.932 76.546 70.302 0.196 2.174 0.33 4.348 0.33 6.574 0.010 42.441-34.404 76.835-76.876 76.835zM136.668 400.078l15.682-15.672c-1.226-2.092-2.174-4.358-2.792-6.759h-22.101c1.164 8.377 4.369 15.991 9.211 22.431zM127.395 364.324h22.256c0.639-2.36 1.546-4.606 2.782-6.656l-15.703-15.703c-4.863 6.399-8.15 14.034-9.335 22.359zM168.527 323.367c-8.336 1.144-15.899 4.42-22.297 9.232l15.631 15.641c2.050-1.195 4.307-2.071 6.666-2.7v-22.174zM168.527 396.677c-2.421-0.639-4.688-1.576-6.8-2.823l-15.672 15.672c6.44 4.894 14.075 8.119 22.472 9.284v-22.132zM181.829 418.81c8.377-1.164 16.022-4.41 22.462-9.294l-15.662-15.662c-2.112 1.247-4.389 2.205-6.8 2.823v22.132zM181.829 323.377v22.163c2.36 0.629 4.606 1.504 6.656 2.72l15.651-15.662c-6.399-4.802-13.972-8.078-22.307-9.222zM213.678 341.903l-15.765 15.775c1.216 2.050 2.236 4.266 2.864 6.656h22.091c-1.175-8.336-4.328-16.033-9.191-22.431zM200.788 377.636c-0.629 2.401-1.566 4.668-2.792 6.759l15.682 15.672c4.853-6.44 8.057-14.054 9.211-22.452l-22.101 0.021zM809.982 447.31c-42.276 0-76.536-34.249-76.536-76.536 0-3.266 0.258-6.46 0.659-9.624 4.74-37.711 36.867-66.912 75.866-66.912 40.071 0 72.888 30.798 76.206 70.003 0.196 2.164 0.33 4.328 0.33 6.533 0.021 42.286-34.239 76.536-76.525 76.536zM771.653 399.614l15.62-15.62c-1.216-2.081-2.164-4.338-2.782-6.728h-22.009c1.144 8.367 4.338 15.94 9.17 22.349zM762.41 364.015h22.153c0.639-2.36 1.546-4.575 2.772-6.636l-15.651-15.662c-4.812 6.388-8.099 14.013-9.273 22.297zM803.367 323.222c-8.294 1.154-15.816 4.42-22.194 9.232l15.559 15.559c2.040-1.185 4.297-2.071 6.646-2.679v-22.112zM803.367 396.234c-2.401-0.629-4.668-1.566-6.759-2.803l-15.6 15.6c6.409 4.853 14.013 8.078 22.359 9.242v-22.040zM816.618 418.274c8.367-1.164 15.96-4.41 22.359-9.253l-15.589-15.589c-2.102 1.236-4.358 2.195-6.77 2.803v22.040zM816.618 323.233v22.101c2.36 0.608 4.595 1.504 6.646 2.7l15.569-15.579c-6.378-4.802-13.91-8.057-22.215-9.222zM848.322 341.687l-15.692 15.703c1.206 2.050 2.226 4.245 2.844 6.625h21.988c-1.164-8.284-4.297-15.94-9.139-22.328zM835.494 377.276c-0.618 2.39-1.546 4.647-2.782 6.728l15.62 15.62c4.832-6.409 8.016-13.982 9.16-22.349h-21.998zM1023.691 424.199c-0.268 10.129-3.411 19.999-9.088 28.428l-4.142 6.182-18.104 47.758c-3.411 9.016-11.736 15.291-21.329 16.094-17.805 1.504-48.046 3.792-76.917 4.853-100.914 53.589-287.514 107.467-445.758 48.747-32.467-12.045-125.231-59.184-125.231-59.184s-150.64 3.812-258.076-34.507c-42.328-15.095-69.024-57.113-64.563-101.842 0.896-8.954 2.215-16.919 3.514-23.348 2.050-10.17 10.448-17.836 20.762-18.979l66.84-7.326c-4.204 8.779-7.161 18.268-8.428 28.387-0.536 4.132-0.804 7.954-0.804 11.664 0 51.178 41.637 92.816 92.816 92.816 51.189 0 92.836-41.647 92.836-92.816 0-2.679-0.175-5.296-0.392-7.913-0.979-11.489-4.111-22.38-8.944-32.302l467.89 0.216c-4.121 8.676-7.037 18.062-8.284 28.026-0.536 4.152-0.793 7.965-0.793 11.612 0 51.003 41.483 92.506 92.496 92.506s92.506-41.483 92.506-92.506c0-2.669-0.175-5.265-0.392-7.872-0.639-7.563-2.298-14.817-4.668-21.741l10.438 0.629 71.909 9.51c12.509 1.659 23.544 9.026 29.86 19.948l7.161 12.354c4.935 8.552 7.429 18.31 7.161 28.181l-0.278 12.426zM768.963 516.241h-351.984c0 0 2.092 8.336-7.11 18.402 0 0 89.982 58.041 228.948 43.543 38.237-3.998 84.964-6.708 148.579-39.772l-18.433-22.174z" />
<glyph unicode="&#xe902;" glyph-name="info" d="M636.539 960c68.567 0 102.84-46.766 102.84-100.239 0-66.785-59.535-128.563-137.124-128.563-64.963 0-102.861 38.42-101.059 101.857 0 53.463 45.107 126.945 135.342 126.945zM425.4-64c-54.139 0-93.839 33.403-55.941 180.378l62.157 260.68c10.824 41.748 12.595 58.44 0 58.44-16.261 0-86.538-28.836-128.102-57.242l-27.034 45.107c131.717 111.882 283.259 177.5 348.201 177.5 54.118 0 63.16-65.137 36.096-165.356l-71.158-274.022c-12.636-48.425-7.199-65.116 5.396-65.116 16.241 0 69.499 20.101 121.815 61.86l30.689-41.769c-128.123-130.284-267.981-180.46-322.12-180.46z" />
<glyph unicode="&#xe903;" glyph-name="jeep" d="M1001.819 584.074h-19.588c-12.263 0-22.181-9.918-22.181-22.171v-40.86l-69.984-1.798c-1.612-0.052-3.182 0.568-4.339 1.684-1.136 1.116-1.798 2.655-1.798 4.267v53.227c0 46.46-37.782 84.273-84.252 84.273 0 0-115.814 0.455-160.353 0.041 0 14.319-11.602 25.921-25.921 25.921h-110.752c-25.839 0-49.59-14.185-61.833-36.935l-60.015-111.485c0 0-275.547-28.163-289.618-42.028s-17.357-40.881-17.357-40.881-13.224-3.595-22.171-16.179c-3.688-5.228-4.174-12.067-1.25-17.749 2.934-5.682 8.802-9.257 15.197-9.257v-14.629l-54.963-12.801c-6.798-1.57-15.58-12.491-7.232-27.967 12.377-22.987 63.837-23.163 63.837-23.163l25.208 78.993c4.577 14.361 17.563 24.372 32.606 25.188l91.784 5.786c13.555 0.713 26.376-6.199 33.236-17.915l74.685-127.943h304.464l92.124 132.313c6.633 9.556 17.419 15.342 29.031 15.6l94.232 1.984c15.187 0.331 28.959-8.844 34.517-22.977l29.32-74.603h68.724c12.263 0 22.171 9.928 22.171 22.171v11.623h2.49c12.274 0 22.171 9.928 22.171 22.171v153.916c-0.010 12.263-9.928 22.181-22.192 22.181zM461.552 536.457v29.765c0 4.432-3.554 8.007-7.965 8.069l-18.080 0.227 31.366 62.060c8.11 16.045 24.558 26.149 42.534 26.149h89.924c3.564 0 6.457-2.893 6.457-6.457v-120.567l-144.236 0.754zM851.859 524.059c0-3.223-2.573-5.858-5.806-5.941l-199.674-5.135c-1.601-0.041-3.172 0.568-4.318 1.684-1.136 1.116-1.798 2.665-1.798 4.257l-0.052 105.762c0 1.57 0.641 3.11 1.746 4.226 1.116 1.095 2.645 1.736 4.215 1.736h153.472c28.783 0 52.215-23.421 52.215-52.215v-54.374zM180.509 406.365c-54.952-0.537-99.077-45.479-98.561-100.452 0.041-4.267 0.434-8.389 1.002-12.511 6.633-49.012 48.754-86.546 99.47-86.070 52.111 0.475 94.387 40.912 98.23 91.938 0.217 2.8 0.372 5.651 0.341 8.513-0.506 54.973-45.51 99.088-100.483 98.582zM172.265 368.49l0.269-28.618c-3.13-0.837-6.033-2.108-8.782-3.771l-20.456 20.084c8.296 6.395 18.131 10.693 28.969 12.305zM131.249 343.871l20.518-20.094c-1.57-2.758-2.779-5.672-3.544-8.792l-28.597-0.289c1.384 10.879 5.434 20.787 11.623 29.176zM119.668 297.504l28.824 0.258c0.827-3.089 2.066-5.961 3.688-8.606l-20.187-20.528c-6.312 8.234-10.683 18.080-12.325 28.876zM144.463 256.643l20.043 20.435c2.665-1.508 5.6-2.655 8.647-3.409l0.289-28.68c-10.776 1.364-20.663 5.486-28.979 11.654zM243.168 315.873l-28.628-0.269c-0.816 3.12-2.087 5.992-3.688 8.74l20.105 20.477c6.395-8.265 10.621-18.1 12.212-28.948zM189.497 368.666c10.879-1.426 20.787-5.517 29.165-11.757l-20.063-20.466c-2.738 1.581-5.682 2.8-8.833 3.585l-0.269 28.638zM190.665 245.144l-0.289 28.669c3.068 0.827 5.982 1.984 8.647 3.626l20.404-20.084c-8.213-6.323-17.977-10.662-28.762-12.212zM231.67 269.516l-20.611 20.218c1.55 2.665 2.862 5.538 3.637 8.678l28.587 0.227c-1.405-10.786-5.383-20.787-11.612-29.124zM789.696 406.365c-54.942-0.537-99.077-45.479-98.561-100.452 0.052-4.267 0.434-8.389 1.002-12.511 6.643-49.012 48.764-86.546 99.48-86.070 52.111 0.475 94.377 40.912 98.22 91.938 0.227 2.8 0.382 5.651 0.351 8.513-0.517 54.973-45.51 99.088-100.493 98.582zM781.451 368.49l0.269-28.618c-3.13-0.837-6.044-2.108-8.792-3.771l-20.456 20.084c8.296 6.395 18.131 10.693 28.979 12.305zM740.436 343.871l20.518-20.094c-1.581-2.758-2.8-5.672-3.554-8.792l-28.597-0.289c1.384 10.879 5.445 20.787 11.633 29.176zM728.865 297.504l28.824 0.258c0.827-3.089 2.066-5.961 3.678-8.606l-20.167-20.528c-6.333 8.234-10.703 18.080-12.336 28.876zM753.639 256.643l20.032 20.435c2.665-1.508 5.61-2.655 8.668-3.409l0.279-28.68c-10.776 1.364-20.652 5.486-28.979 11.654zM852.345 315.873l-28.628-0.269c-0.796 3.12-2.066 5.992-3.668 8.74l20.115 20.477c6.364-8.265 10.6-18.1 12.181-28.948zM798.684 368.666c10.879-1.426 20.797-5.517 29.165-11.757l-20.063-20.466c-2.748 1.581-5.682 2.8-8.823 3.585l-0.279 28.638zM799.841 245.144l-0.269 28.669c3.058 0.827 5.961 1.984 8.627 3.626l20.425-20.084c-8.234-6.323-17.997-10.662-28.783-12.212zM840.857 269.516l-20.611 20.218c1.539 2.665 2.851 5.538 3.647 8.678l28.587 0.227c-1.426-10.786-5.403-20.787-11.623-29.124z" />
<glyph unicode="&#xe904;" glyph-name="motorcycle" d="M651.387 459.981c6.607 7.218 7.549 17.111 2.080 22.115-5.451 4.989-15.228 3.188-21.833-4.029l-11.363-12.419c8.092-5.451 15.656-10.503 22.51-15.061l8.606 9.395zM684.419 443.465c6.607 7.218 7.549 17.111 2.080 22.115-5.451 4.989-15.228 3.188-21.833-4.029l-14.499-15.839c10.355-6.82 18.332-11.973 22.859-14.682l11.393 12.435zM717.45 426.949c6.607 7.218 7.549 17.111 2.080 22.115-5.451 4.989-15.228 3.188-21.833-4.029l-14.797-16.17c7.664-0.744 19.34-1.685 33.791-2.724l0.759 0.808zM536.682 522.46c23.949-16.4 50.655-34.601 74.322-50.555l15.41 15.41c0 0-32.667 22.23-61.554 42.001-8.475-1.209-17.806-3.419-28.179-6.856zM273.634 250.196c6.474 13.643 17.937 44.048 15.061 68.079-3.155 3.814-14.682 16.003-51.166 44.148 5.22-12.058 8.141-25.352 8.141-39.323 0-54.733-44.361-99.094-99.094-99.094s-99.094 44.361-99.094 99.094 44.361 99.094 99.094 99.094c4.409 0 8.721-0.38 12.966-0.941-19.753 15.757-36.004 30.256-48.475 43.914-63.749-15.887-111.067-73.381-111.067-142.070 0-80.945 65.616-146.579 146.579-146.579 54.387 0.003 101.754 29.697 127.055 73.678zM155.282 388.285c-2.873 0.38-5.715 0.875-8.688 0.875-36.435 0-66.063-29.63-66.063-66.063 0-36.435 29.63-66.063 66.063-66.063s66.063 29.63 66.063 66.063c0 8.836-1.801 17.226-4.971 24.939l-34.981-45.171c-6.292-8.141-15.823-12.799-26.145-12.799-7.367 0-14.354 2.396-20.199 6.905-14.402 11.165-17.044 31.941-5.897 46.344l34.817 44.971zM869.164 488.257c-51.545 0-97.081-25.285-125.223-64.031 24.195-1.634 51.727-3.386 78.154-5.004 13.971 7.679 30.010 12.073 47.069 12.073 54.041 0 97.855-43.817 97.855-97.855s-43.817-97.855-97.855-97.855c-30.010 0-56.813 13.543-74.768 34.799-22.744 6.738-49.681 14.090-73.593 18.945 19.009-63.998 78.203-110.721 148.362-110.721 85.518 0 154.836 69.318 154.836 154.836s-69.333 154.814-154.836 154.814zM146.546 621.126c21.389 16.68 50.422 33.478 91.184 49.863l27.566 48.49-38.069-17.211c-45.618-27.678-68.708-57.524-80.681-81.142zM916.68 652.39c-0.015 0-0.033 0-0.033 0-10.935 0.544-21.256 0.811-30.985 0.811-51.035 0-85.834-7.069-109.418-15.905-21.156-21.899-76.071-76.156-102.267-77.444-0.134 0-1.867-0.049-2.016-0.049-31.082 0-135.101 34.765-139.526 36.253-3.237 1.090-5.484 4.063-5.615 7.464-0.149 3.419 1.816 6.556 4.956 7.928l41.124 17.919c-11.262 11.396-17.524 12.702-17.524 12.702-53.926 27.714-132.293 31.513-171.254 31.513-14.748 0-23.849-0.544-23.849-0.544 0.279 5.402-6.161 7.348-15.656 7.348-24.972 0-71.052-13.543-71.052-13.543-18.532-6.407-34.683-12.899-49.201-19.406-44.412-19.886-71.532-39.936-89.417-58.599-14.864-15.508-23.536-30.059-30.687-42.776-12.155-21.62-8.077-43.107 26.245-77.31 12.899-12.866 30.141-27.581 52.423-44.774 2.165-1.667 4.294-3.319 6.556-5.038 0.398-0.298 0.744-0.577 1.124-0.875l-3.55-4.591-1.503-1.931-5.071-6.522-3.981-5.153-45.117-58.289c-7.895-10.206-6.028-24.857 4.163-32.752 4.26-3.286 9.283-4.889 14.287-4.889 6.969 0 13.874 3.106 18.48 9.052l59.838 77.265c0.413-0.298 0.744-0.562 1.139-0.859 2.329-1.734 4.409-3.319 6.607-4.971 29.977-22.61 47.036-37.176 56.516-46.21 11.675-11.147 12.14-14.105 12.14-14.105 6.887-37.507-17.888-84.989-17.888-84.989s263.562 0 293.156 0 41.291 16.516 41.291 16.516 19.95 24.775 37.161 49.547c2.939 4.245 10.522 6.012 21.040 6.012 10.206 0 23.239-1.7 37.474-4.342 20.33-3.784 43.107-9.529 64.098-15.426 8.308-2.329 16.236-4.64 23.685-6.887 26.227-7.877 45.484-14.469 45.484-14.469l0.049 0.313c6.079-1.849 12.404-3.122 19.075-3.122 36.532 0 66.145 29.612 66.145 66.145 0 34.963-27.201 63.287-61.554 65.683l0.082 0.462c0 0-19.935 1.157-47.3 2.824-7.862 0.48-16.318 1.008-25.121 1.552-22.115 1.388-46.195 2.939-67.715 4.427-11.363 0.793-21.966 1.552-31.182 2.262-17.821 1.388-30.405 2.575-32.585 3.304-0.082 0.033-0.364 0.197-0.462 0.249-1.19 0.495-3.929 2.080-7.761 4.461-5.551 3.434-13.312 8.472-22.807 14.733-2.329 1.536-4.874 3.237-7.367 4.889-7.036 4.673-14.566 9.711-22.51 15.061-3.27 2.195-6.556 4.409-9.908 6.671-46.046 31.082-97.412 66.442-97.412 66.442 17.029 7.582 31.547 12.684 44.115 15.921 12.353 3.17 22.826 4.543 31.844 4.543 29.928 0 44.048-14.7 59.771-25.616 8.423-5.845 17.26-7.795 25.285-7.795 16.054 0 28.902 7.795 28.902 7.795 270.312 130.091 226.446 131.114 225.040 131.114zM442.328 401.764l57.724 51.381c6.838 6.061 17.26 5.451 23.321-1.354 6.061-6.82 5.466-17.26-1.354-23.321l-51.15-45.533-28.54 18.826zM450.503 486.177c6.82 6.061 17.26 5.451 23.321-1.354 6.061-6.82 5.466-17.26-1.354-23.321l-51.363-45.733-28.54 18.83 57.937 51.579zM571.566 395.436l-50.953-45.354-28.54 18.83 57.509 51.199c6.838 6.061 17.241 5.451 23.321-1.354 6.079-6.82 5.484-17.257-1.336-23.321zM671.948 568.045l0.015 0.082 1.172 8.208c5.138 0.249 13.379 4.707 23.22 11.675 7.944 5.633 16.929 12.914 26.16 20.958 0.134 0.115 0.264 0.231 0.38 0.331 1.849 1.603 3.683 3.204 5.533 4.855-0.662-0.164-1.454-0.331-2.429-0.462-2.757-0.38-7.020-0.61-14.090-0.61-0.082 0-0.134 0-0.216 0-27.219 0-81.637 3.222-108.261 4.922-4.476 0.279-8.077 0.513-10.719 0.692-0.957 0.067-1.883 0.134-2.56 0.164l-31.89-13.904c12.438-3.947 27.368-8.524 42.381-12.851 3.899-1.124 7.728-2.195 11.593-3.27 12.107-3.352 23.734-6.343 33.906-8.587 7.78-1.719 14.469-2.906 19.819-3.468 2.113-0.231 4.36-0.513 5.964-0.513v-8.223h0.021z" />
<glyph unicode="&#xe905;" glyph-name="pickup" d="M1022.091 486.545c-1.228 1.218-2.89 1.92-4.614 1.909l-450.171-0.609-7.896 93.067c-2.446 28.868-27.258 50.626-56.189 49.294l-128.365-5.873c-21.303-0.991-40.036-14.419-47.767-34.297l-23.027-59.141-213.722-11.384c-26.268-1.404-48.107-20.746-52.669-46.662l-19.631-111.624-9.939-8.257c-5.398-4.5-8.391-11.25-8.082-18.279 0.32-7.018 3.901-13.49 9.681-17.453l5.997-4.128c8.918-6.141 20.952-5.037 28.6 2.611l6.234 6.234c2.962 2.952 4.665 6.926 4.768 11.085 0.671 25.617 16.978 89.372 90.259 89.372 36.692 0 87.080-29.23 87.080-92.716 0-14.181 11.075-31.542 47.189-31.542h89.537c23.636 0 46.301 9.382 63.021 26.092l286.796-2.302c-5.986 48.427 29.684 100.426 85.439 100.426 89.557 0 91.683-98.289 137.984-98.289 3.901 0 15.626 0 15.626 0 28.208-0.010 51.131 22.82 51.245 51.018l0.392 100.302h7.627c3.602 0 6.502 2.9 6.502 6.502 0.021 1.765-0.681 3.416-1.909 4.645zM495.615 538.533c-0.155-8.288-6.75-15.017-15.028-15.306l-76.367-2.818-16.896 32.244c-2.694 5.119-9.021 7.111-14.13 4.428-5.13-2.684-7.101-9.010-4.417-14.13l12.251-23.398-12.84-0.475c-4.18-0.155-8.174 1.703-10.744 4.985-2.58 3.282-3.416 7.607-2.26 11.632l12.21 42.4c3.189 11.085 13.139 18.878 24.657 19.311l88.236 3.313c4.294 0.155 8.453-1.476 11.518-4.469 3.065-3.014 4.758-7.132 4.676-11.426l-0.867-46.291zM143.114 402.592c-37.796-0.372-68.13-31.273-67.78-69.070 0.031-2.931 0.299-5.79 0.692-8.598 4.552-33.709 33.523-59.523 68.388-59.182 35.846 0.33 64.921 28.146 67.552 63.238 0.144 1.93 0.258 3.881 0.237 5.842-0.341 37.786-31.284 68.13-69.090 67.769zM137.437 376.551l0.196-19.672c-2.147-0.599-4.159-1.455-6.028-2.601l-14.078 13.83c5.687 4.387 12.458 7.338 19.91 8.443zM109.24 359.635l14.109-13.841c-1.084-1.889-1.909-3.901-2.436-6.038l-19.672-0.206c0.95 7.483 3.736 14.305 7.999 20.085zM101.282 327.722l19.806 0.186c0.578-2.116 1.424-4.087 2.539-5.904l-13.851-14.13c-4.366 5.656-7.38 12.427-8.494 19.848zM118.312 299.638l13.779 14.037c1.837-1.042 3.86-1.837 5.966-2.343l0.196-19.745c-7.421 0.97-14.202 3.809-19.941 8.051zM186.195 340.355l-19.683-0.196c-0.568 2.147-1.435 4.118-2.539 6.007l13.83 14.088c4.387-5.666 7.297-12.427 8.391-19.899zM149.286 376.665c7.483-0.991 14.305-3.798 20.064-8.082l-13.799-14.078c-1.889 1.104-3.922 1.94-6.090 2.467l-0.175 19.693zM150.091 291.721l-0.186 19.724c2.106 0.568 4.098 1.383 5.924 2.477l14.047-13.81c-5.656-4.335-12.375-7.328-19.786-8.391zM178.289 308.483l-14.161 13.892c1.063 1.858 1.951 3.829 2.498 5.966l19.652 0.196c-0.981-7.431-3.705-14.316-7.989-20.054zM806.181 402.592c-37.796-0.372-68.141-31.273-67.78-69.070 0.031-2.931 0.299-5.79 0.681-8.598 4.552-33.709 33.523-59.523 68.388-59.182 35.846 0.33 64.921 28.146 67.563 63.238 0.144 1.93 0.258 3.881 0.237 5.842-0.33 37.786-31.284 68.13-69.090 67.769zM800.514 376.551l0.186-19.672c-2.147-0.599-4.149-1.455-6.028-2.601l-14.078 13.83c5.708 4.387 12.458 7.338 19.92 8.443zM772.307 359.635l14.109-13.841c-1.073-1.889-1.909-3.901-2.425-6.038l-19.662-0.206c0.939 7.483 3.716 14.305 7.978 20.085zM764.359 327.722l19.817 0.186c0.578-2.116 1.424-4.087 2.539-5.904l-13.872-14.13c-4.366 5.656-7.38 12.427-8.484 19.848zM781.379 299.638l13.779 14.037c1.847-1.042 3.86-1.837 5.966-2.343l0.206-19.745c-7.431 0.97-14.192 3.809-19.951 8.051zM849.272 340.355l-19.683-0.196c-0.568 2.147-1.435 4.118-2.529 6.007l13.83 14.088c4.376-5.666 7.287-12.427 8.381-19.899zM812.353 376.665c7.493-0.991 14.316-3.798 20.064-8.082l-13.799-14.078c-1.889 1.104-3.912 1.94-6.079 2.467l-0.186 19.693zM813.168 291.721l-0.186 19.724c2.106 0.568 4.087 1.383 5.924 2.477l14.037-13.81c-5.646-4.335-12.375-7.328-19.775-8.391zM841.366 308.483l-14.161 13.892c1.063 1.858 1.94 3.829 2.498 5.966l19.641 0.196c-0.97-7.431-3.695-14.316-7.978-20.054z" />
<glyph unicode="&#xe906;" glyph-name="suv" d="M1014.726 422.402l-6.999 1.091c2.511 95.969-12.557 115.299-29.417 174.070h9.274c4.405 0 7.956 3.572 7.956 7.967v9.15c0 4.395-3.572 7.956-7.956 7.956h-564.318c-8.286 0-16.407-2.223-23.529-6.433l-171.034-101.033c0 0-171.219-6.906-197.754-33.163-13.411-13.267-25.536-39.442-29.962-69.651-4.426-30.199 7.133-62.394 13.7-69.342 6.577-6.948 17.117-10.272 17.117-10.272l4.179-7.936c2.697-5.105 8.028-8.244 13.803-8.1l27.523 0.659v75.991c0 29.468 23.92 53.399 53.409 53.399h73.068c25.845 0 46.811-20.946 46.811-46.821v-78.348l1.245 0.031 446.868 6.865 6.433-0.648v65.534c0 29.468 23.92 53.399 53.399 53.399h73.088c25.855 0 46.801-20.946 46.801-46.821v-85.666l61.664 13.092c3.242 0.69 6.021 2.841 7.503 5.826l4.508 8.975 62.363 8.162c5.455 0.71 9.541 5.373 9.541 10.89v50.362c-0.021 5.373-3.952 9.974-9.284 10.818zM477.941 510.24c-1.369-1.462-3.283-2.295-5.301-2.295h-136.121c0 0 8.358 4.292 12.732 10.416 4.385 6.104 1.956 20.565-2.964 25.444-4.518 4.467-13.607 7.503-13.607 7.503l68.457 42.149c4.385 2.707 9.428 4.127 14.585 4.127h57.927c1.935 0 3.788-0.772 5.146-2.151s2.11-3.232 2.079-5.177l-0.998-74.56c0.134-2.017-0.556-3.983-1.935-5.455zM648.903 516.292c-4.57-5.548-11.353-8.821-18.558-8.986l-108.948-2.367c-1.945-0.041-3.839 0.69-5.229 2.048-1.4 1.369-2.182 3.242-2.182 5.188v78.173c0 3.994 3.232 7.225 7.225 7.225h120.919c3.747 0 6.865-2.851 7.195-6.587l4.879-54.788c1.204-7.092-0.731-14.369-5.301-19.906zM971.198 516.23c-0.638-1.081-1.801-1.729-3.057-1.739l-221.314-1.667c-9.583-0.072-18.517 4.817-23.653 12.917l-23.2 62.075c-0.834 2.223-0.525 4.704 0.823 6.649 1.359 1.945 3.582 3.108 5.939 3.108h234.118c3.15 0 5.908-2.017 6.886-5.002l23.55-72.811c0.597-1.122 0.556-2.46-0.093-3.53zM163.922 431.326c-43.59 0-78.976-35.335-78.976-78.966 0-3.386 0.278-6.659 0.69-9.943 4.91-38.927 38.042-69.054 78.276-69.054 41.397 0 75.24 31.763 78.677 72.255 0.196 2.254 0.34 4.467 0.34 6.742 0.010 43.631-35.355 78.966-79.007 78.966zM124.367 382.106l16.139-16.087c-1.266-2.192-2.275-4.508-2.872-6.978h-22.716c1.173 8.625 4.467 16.468 9.449 23.066zM114.836 345.372h22.891c0.648-2.408 1.585-4.724 2.872-6.855l-16.17-16.129c-4.982 6.556-8.378 14.42-9.593 22.984zM157.087 303.295c-8.533 1.142-16.324 4.508-22.901 9.469l16.067 16.077c2.089-1.235 4.426-2.131 6.834-2.779v-22.767zM157.087 378.617c-2.46-0.638-4.796-1.637-6.978-2.903l-16.067 16.087c6.598 5.033 14.441 8.358 23.035 9.562l0.010-22.747zM170.756 401.353c8.646-1.194 16.489-4.508 23.097-9.583l-16.087-16.067c-2.151 1.256-4.508 2.275-7.020 2.892l0.010 22.757zM170.756 303.295v22.778c2.439 0.638 4.755 1.534 6.886 2.789l16.046-16.098c-6.567-4.951-14.358-8.306-22.932-9.469zM203.497 322.347l-16.18 16.19c1.235 2.11 2.285 4.385 2.923 6.834h22.685c-1.194-8.564-4.416-16.479-9.428-23.025zM190.24 359.040c-0.597 2.46-1.585 4.786-2.83 6.978l16.098 16.087c5.002-6.628 8.296-14.441 9.469-23.066h-22.737zM791.756 431.326c-43.6 0-78.996-35.335-78.996-78.966 0-3.386 0.268-6.659 0.7-9.943 4.899-38.927 38.042-69.054 78.276-69.054 41.387 0 75.229 31.763 78.667 72.255 0.206 2.254 0.34 4.467 0.34 6.742 0.021 43.631-35.325 78.966-78.986 78.966zM752.201 382.106l16.118-16.087c-1.266-2.192-2.264-4.508-2.861-6.978h-22.706c1.163 8.625 4.457 16.468 9.449 23.066zM742.659 345.372h22.891c0.648-2.408 1.575-4.724 2.861-6.855l-16.149-16.129c-4.992 6.556-8.389 14.42-9.603 22.984zM784.911 303.295c-8.543 1.142-16.335 4.508-22.912 9.469l16.077 16.077c2.089-1.235 4.436-2.131 6.834-2.779v-22.767zM784.911 378.617c-2.45-0.638-4.796-1.637-6.989-2.903l-16.067 16.087c6.587 5.033 14.43 8.358 23.035 9.562l0.021-22.747zM798.6 401.353c8.636-1.194 16.479-4.508 23.087-9.583l-16.087-16.067c-2.151 1.256-4.508 2.275-7.009 2.892l0.010 22.757zM798.6 303.295v22.778c2.419 0.638 4.745 1.534 6.876 2.789l16.046-16.098c-6.577-4.951-14.358-8.306-22.922-9.469zM831.331 322.347l-16.19 16.19c1.235 2.11 2.295 4.385 2.933 6.834h22.685c-1.194-8.564-4.426-16.479-9.428-23.025zM818.074 359.040c-0.607 2.46-1.595 4.786-2.82 6.978l16.087 16.087c4.982-6.628 8.296-14.441 9.469-23.066h-22.737z" />
<glyph unicode="&#xe907;" glyph-name="tank" d="M749.717 630.768l-33.726 71.175c-2.596 6.488-8.88 10.74-15.864 10.74h-17.076v17.076c0 9.426-7.65 17.076-17.076 17.076h-136.61c-9.426 0-17.076-7.65-17.076-17.076v-17.076h-51.229c-1.11-0.102-2.22-0.222-3.33-0.324l-83.741-16.752h-49.539c-9.426 0-17.076-7.65-17.076-17.076v-17.076h-170.762c0 9.426-7.634 17.076-17.076 17.076h-102.459c-9.426 0-17.076-7.65-17.076-17.076v-34.152c0-9.426 7.65-17.076 17.076-17.076h102.457c9.442 0 17.076 7.65 17.076 17.076h170.762v-17.076c0-9.426 7.65-17.076 17.076-17.076h409.831c9.426 0 17.076 7.65 17.076 17.076v13.234c0 2.526-0.562 5.020-1.638 7.308zM973.347 507.767h-34.152v34.152c0 9.426-7.65 17.076-17.076 17.076h-700.128c-9.426 0-17.076-7.65-17.076-17.076v-34.152h-119.533c-4.526 0-8.88-1.792-12.072-5.004l-68.305-68.303c-6.66-6.66-6.66-17.486 0-24.146l51.229-51.229c6.66-6.66 17.486-6.66 24.146 0l41.222 41.222c3.21 3.21 7.548 5.004 12.072 5.004h839.674c9.426 0 17.076 7.65 17.076 17.076v68.305c0 9.424-7.65 17.074-17.076 17.074zM1021.45 313.080c-8.47 34.732-34.664 58.077-65.181 58.077-0.154 0-0.324 0.018-0.478 0h-785.507c-30.514 0-56.711-23.344-65.181-58.077-7.838-32.188 1.554-73.633 39.634-93.355l119.533-68.305c2.578-1.486 5.498-2.254 8.47-2.254h581.071c2.972 0 5.892 0.768 8.47 2.254l118.919 67.963c38.712 20.064 48.087 61.509 40.248 93.697z" />
<glyph unicode="&#xe908;" glyph-name="truck" d="M1006.934 695.466h-716.8c-9.438 0-17.066-8.824-17.066-19.694v-219.238c0-9.42 7.646-17.066 17.066-17.066h716.8c9.42 0 17.066 7.646 17.066 17.066v219.238c0 10.872-7.628 19.694-17.066 19.694zM1006.934 405.334h-477.868c-9.42 0-17.066-7.646-17.066-17.066v-101.12c-0.358-4.148 0.786-8.328 3.328-11.724 3.208-4.3 8.278-6.844 13.67-6.844h0.018l51.268 0.052c0.086-37.564 30.652-68.096 68.25-68.096 37.65 0 68.266 30.618 68.266 68.266h102.4c0-37.65 30.618-68.266 68.266-68.266 37.65 0 68.266 30.618 68.266 68.266h51.2c9.42 0 17.066 7.646 17.066 17.066v102.4c0.002 9.42-7.644 17.066-17.064 17.066zM648.534 234.666c-18.824 0-34.134 15.308-34.134 34.134 0 18.824 15.308 34.134 34.134 34.134 18.824 0 34.134-15.308 34.134-34.134-0.002-18.824-15.31-34.134-34.134-34.134zM887.466 234.666c-18.824 0-34.134 15.308-34.134 34.134 0 18.824 15.308 34.134 34.134 34.134 18.824 0 34.134-15.308 34.134-34.134 0-18.824-15.308-34.134-34.134-34.134zM460.8 405.334h-204.8c-9.42 0-17.066 7.646-17.066 17.066v170.666c0 9.42-7.646 17.066-17.066 17.066h-136.534c-6.98 0-13.26-4.25-15.854-10.734l-68.252-170.632c-0.408-2.15-0.818-4.232-1.228-6.366v-170.666c0-9.42 7.646-17.066 17.066-17.066h60.69c11.844-20.31 33.622-34.134 58.778-34.134 37.65 0 68.266 30.618 68.266 68.266h68.266c0-37.65 30.618-68.266 68.266-68.266s68.268 30.616 68.268 68.266h51.2c9.42 0 17.066 7.646 17.066 17.066v102.4c0 9.422-7.646 17.068-17.066 17.068zM55.126 439.466c-6.11 0-10.24 6.212-7.868 11.844l35.892 85.334c1.314 3.158 4.42 5.222 7.85 5.222h54.068c4.71 0 8.534-3.822 8.534-8.534v-85.332c0-4.71-3.822-8.534-8.534-8.534h-89.942zM136.534 234.666c-18.824 0-34.134 15.308-34.134 34.134 0 18.824 15.308 34.134 34.134 34.134 18.824 0 34.134-15.308 34.134-34.134-0.002-18.824-15.31-34.134-34.134-34.134zM341.334 234.666c-18.824 0-34.134 15.308-34.134 34.134 0 18.824 15.308 34.134 34.134 34.134 18.824 0 34.134-15.308 34.134-34.134-0.002-18.824-15.31-34.134-34.134-34.134z" />
<glyph unicode="&#xe909;" glyph-name="truck-big" d="M888.352 380.909c-28.998 0-52.543-23.468-52.543-52.485 0-29.037 23.546-52.543 52.543-52.543 28.9 0 52.524 23.507 52.524 52.543 0 28.978-23.546 52.485-52.524 52.485zM888.313 305.426c-12.701 0-23.096 10.298-23.096 23.057 0 12.623 10.298 23.018 23.096 23.018 12.623 0 23.057-10.298 23.057-23.018 0-12.76-10.337-23.057-23.057-23.057zM765.738 380.909c-28.919 0-52.485-23.468-52.485-52.485 0-29.037 23.507-52.543 52.485-52.543 28.998 0 52.543 23.507 52.543 52.543-0.039 28.978-23.546 52.485-52.543 52.485zM765.738 305.426c-12.623 0-23.018 10.298-23.018 23.057 0 12.623 10.337 23.018 23.018 23.018 12.74 0 23.018-10.298 23.018-23.018 0-12.76-10.317-23.057-23.018-23.057zM641.502 380.909c-28.998 0-52.543-23.468-52.543-52.485 0-29.037 23.507-52.543 52.543-52.543 28.9 0 52.485 23.507 52.485 52.543 0 28.978-23.507 52.485-52.485 52.485zM641.502 305.426c-12.701 0-23.175 10.298-23.175 23.057 0 12.623 10.337 23.018 23.175 23.018 12.623 0 23.018-10.298 23.018-23.018 0-12.76-10.298-23.057-23.018-23.057zM108.838 566.462c0 0 31.284 28.372 87.95 53.911v-53.911h-87.95zM203.022 623.871v-69.289c-1.524 0-2.931 0-4.397 0v-214.023h379.411c6.448 29.506 32.749 51.684 64.033 51.684 28.919 0 53.345-18.661 62.255-44.532 8.813 25.832 33.277 44.532 62.099 44.532 27.981 0 51.82-17.547 61.336-42.285 9.457 24.738 33.277 42.285 61.336 42.285 31.342 0 57.741-22.178 64.111-51.684h54.009v64.58h16.785v218.732h-820.978zM992.325 372.429h-8.168v32.671h8.168v-32.671zM28.763 347.515c-0.801-3.674-1.309-7.523-1.309-11.411 0-3.283 0.41-6.448 1.075-9.575h-28.529v20.986h28.763zM170.781 347.515h21.963v-20.947h-21.631c0.41 3.087 0.762 6.292 0.762 9.536-0.020 3.928-0.489 7.757-1.094 11.411zM577.235 336.104c-0.41-3.126-0.723-6.331-0.723-9.575 0-1.993 0.156-3.849 0.274-5.842h-378.121v15.417h378.57zM953.968 336.104h59.031v-15.378h-58.581c0.156 1.954 0.313 3.849 0.313 5.803 0 3.244-0.313 6.448-0.762 9.575zM1.895 459.89v-23.057l-0.020-83.495h31.968c7.738 30.346 35.172 52.856 67.941 52.856 32.691 0 60.066-22.432 67.863-52.856h23.546v201.556h-147.919l-43.379-95.004zM176.994 539.575v-49.925h-57.077l-42.226-35.504h-56.432l31.381 85.429h124.353zM101.98 384.719c-31.108 0.039-56.334-25.187-56.334-56.295s25.226-56.295 56.334-56.295c31.069 0 56.295 25.148 56.295 56.295-0.039 31.108-25.265 56.295-56.295 56.295zM101.98 303.745c-13.659 0-24.738 11.060-24.738 24.738 0 13.58 10.982 24.699 24.738 24.699 13.619 0 24.679-11.021 24.679-24.699s-11.060-24.738-24.679-24.738z" />
<glyph unicode="&#xe90a;" glyph-name="ufo" d="M0 457.822c12.655-16.974 51.281-42.009 129.585-64.055 28.897-8.13 60.871-15.069 94.787-21.023 83.239-14.61 179.521-22.552 280.604-22.552 103.631 0 202.33 8.299 286.964 23.606 31.549 5.716 61.315 12.314 88.408 19.951 91.010 25.614 128.463 55.293 133.769 71.622-53.932 77.523-162.939 140.064-276.861 178.333 0.816 5.682 1.36 11.345 1.36 16.974 0 61.009-49.461 92.048-110.451 92.048h-222.128c-61.009 0-110.451-31.039-110.451-92.048 0-4.065 0.256-8.165 0.682-12.264-122.753-38.913-242.185-106.283-296.27-190.591zM580.408 503.777c0-37.537-30.426-67.982-67.982-67.982-37.537 0-67.982 30.426-67.982 67.982 0 10.019 2.295 19.475 6.192 28.031 10.698 23.522 34.273 39.936 61.775 39.936 27.518 0 51.093-16.43 61.775-39.936 3.928-8.556 6.223-17.996 6.223-28.031zM764.829 557.541c22.978 22.978 65.668 17.537 95.366-12.161s35.123-72.388 12.161-95.366c-22.978-22.978-65.668-17.537-95.366 12.161s-35.139 72.388-12.161 95.366zM164.674 545.38c29.698 29.698 72.388 35.123 95.366 12.161 22.978-22.978 17.537-65.668-12.161-95.366-29.679-29.698-72.388-35.123-95.366-12.161-22.962 22.996-17.518 65.687 12.161 95.366zM504.977 316.176c-123.209 0-236.79 11.548-327.988 30.974-75.619 16.123-135.846 37.656-173.245 62.572 29.51-43.185 76.181-81.741 131.321-114.125-1.157-4.422-1.786-8.896-1.786-13.418 0-76.707 168.399-138.907 376.154-138.907s376.139 62.182 376.139 138.888c0 4.49-0.629 8.912-1.751 13.299 60.975 35.802 111.608 79.14 140.183 127.919-33.353-29.917-98.527-55.856-184.268-74.718-92.323-20.338-208.472-32.484-334.758-32.484z" />
<glyph unicode="&#xe90b;" glyph-name="arrows" d="M18.283 557.712h786.303v-109.717c0-4.954 1.801-9.233 5.418-12.857 3.625-3.623 7.912-5.43 12.863-5.43 5.336 0 9.719 1.711 13.136 5.142l182.865 182.859c3.417 3.429 5.13 7.812 5.13 13.14 0 5.338-1.713 9.723-5.144 13.144l-182.274 182.29c-4.575 3.815-9.151 5.716-13.726 5.716-5.328 0-9.713-1.713-13.136-5.14-3.425-3.433-5.136-7.808-5.136-13.144v-109.717h-786.299c-4.952 0-9.237-1.807-12.855-5.428s-5.428-7.904-5.428-12.855v-109.717c0-4.952 1.807-9.237 5.428-12.855s7.904-5.43 12.855-5.43zM1005.721 338.268h-786.295v109.721c0 4.952-1.811 9.237-5.428 12.855-3.621 3.621-7.908 5.428-12.857 5.428-5.338 0-9.715-1.713-13.144-5.14l-182.857-182.849c-3.421-3.439-5.14-7.81-5.14-13.154 0-4.946 1.711-9.143 5.14-12.559l182.288-182.865c4.573-3.807 9.145-5.706 13.718-5.706 4.95 0 9.237 1.807 12.855 5.418 3.617 3.629 5.428 7.904 5.428 12.863v109.713h786.291c4.96 0 9.233 1.799 12.863 5.424 3.617 3.625 5.418 7.904 5.418 12.863v109.713c0 4.954-1.807 9.233-5.418 12.849-3.631 3.617-7.906 5.424-12.863 5.424z" />
<glyph unicode="&#xe90c;" glyph-name="pencil" d="M907.612 806.388l-72.966 72.968c-7.818 7.816-20.492 7.816-28.308 0s-7.818-20.492 0-28.308l72.966-72.968c3.91-3.91 9.032-5.864 14.154-5.864s10.246 1.956 14.154 5.864c7.818 7.818 7.82 20.492 0 28.308zM930.558 775.154c-25.76 0-25.802-40.036 0-40.036 25.762 0 25.804 40.036 0 40.036zM997.15 828.208l-104.926 104.906c-17.322 17.338-40.36 26.886-64.87 26.886s-47.548-9.548-64.868-26.88l-60.266-60.244c-0.004-0.004-0.006-0.006-0.010-0.010l-620.786-620.786c-2.688-2.69-4.434-5.964-5.272-9.412l-75.432-281.468c-1.852-6.908 0.124-14.278 5.18-19.338 3.804-3.802 8.916-5.862 14.154-5.862 1.728 0 3.47 0.224 5.18 0.682l281.888 75.546c0.058 0.016 0.11 0.042 0.168 0.056 0.784 0.216 1.56 0.474 2.318 0.788 0.052 0.022 0.1 0.048 0.15 0.070 0.676 0.286 1.338 0.62 1.986 0.984 0.18 0.102 0.356 0.208 0.532 0.314 0.52 0.314 1.026 0.656 1.524 1.022 0.168 0.124 0.34 0.24 0.502 0.37 0.618 0.486 1.222 1.002 1.79 1.574l620.776 620.756c0.004 0.004 0.008 0.006 0.010 0.010l60.276 60.278c35.746 35.776 35.746 93.98-0.004 129.758zM716.364 830.402l74.878-74.884-592.47-592.472-74.882 74.88 592.474 592.476zM48.366-15.67l19.822 73.962 54.14-54.14-73.962-19.822zM166.98 16.118l-86.826 86.826 25.806 96.29 78.64-78.64c0.004-0.004 0.008-0.010 0.014-0.016s0.010-0.008 0.016-0.014l78.642-78.642-96.292-25.804zM301.942 59.872l-74.862 74.862 592.47 592.47 74.868-74.874-592.476-592.458zM968.846 726.756l-46.116-46.118-88.924 88.934c-0.032 0.032-0.060 0.068-0.092 0.102s-0.068 0.060-0.102 0.092l-88.934 88.942 46.122 46.108c9.762 9.768 22.744 15.15 36.554 15.15s26.792-5.38 36.562-15.158l104.926-104.904c20.154-20.168 20.154-52.984 0.004-73.148z" />
<glyph unicode="&#xe90d;" glyph-name="users, group, team, profiles, people" d="M576 348.5v163.5c0 106.062-85.938 192-192 192s-192-85.938-192-192v-163.5c-114.312-44.376-192-126-192-220.5 0-11.312 0-128 0-128 0-35.376 28.624-64 64-64h640c35.376 0 64 28.624 64 64 0 0 0 116.688 0 128 0 94.5-77.688 176.124-192 220.5zM320 512c0 35.376 28.624 64 64 64s64-28.624 64-64v-192c0-35.376-28.624-64-64-64s-64 28.624-64 64v192zM640 64h-512v64c0 38.876 35.438 73.312 90.188 96.812 33.188-57.624 94.624-96.812 165.812-96.812s132.624 39.188 165.812 96.812c54.75-23.5 90.188-57.936 90.188-96.812v-64zM832 604.5v163.5c0 106.062-85.938 192-192 192s-192-85.938-192-192v-9.062c50.562-13.062 94.624-41.062 128-79.25v88.312c0 35.376 28.624 64 64 64s64-28.624 64-64v-192c0-35.376-28.624-64-64-64v-128c71.188 0 132.624 39.188 165.812 96.812 54.75-23.5 90.188-57.936 90.188-96.812v-64h-233.562c64.438-33.188 113.938-77 142.124-128h155.438c35.376 0 64 28.624 64 64 0 0 0 116.688 0 128 0 94.5-77.688 176.124-192 220.5z" />
<glyph unicode="&#xe90e;" glyph-name="wheelchair" horiz-adv-x="931" d="M584.571 272.571l58.286-116.571c-44-136-170.857-229.143-313.714-229.143-181.143 0-329.143 148-329.143 329.143 0 138.286 86.857 261.714 216.571 309.143l9.714-74.857c-93.143-41.143-153.143-132.571-153.143-234.286 0-141.143 114.857-256 256-256 146.857 0 265.714 125.714 255.429 272.571zM897.714 215.428l33.143-65.143-146.286-73.143c-5.143-2.857-10.857-4-16.571-4-13.714 0-26.857 8-32.571 20l-136.571 272.571h-269.714c-18.286 0-34.286 14.286-36.571 32.571l-54.857 445.143c-0.571 5.714 1.714 18.286 3.429 24 10.857 39.429 47.429 65.143 88 65.143 50.286 0 91.429-41.143 91.429-91.429 0-52-45.714-96.571-98.286-90.857l21.143-165.143h241.714v-73.143h-232.571l9.143-73.143h260c13.714 0 26.857-8 32.571-20l130.286-260z" />
<glyph unicode="&#xe96a;" glyph-name="reply" d="M448 184.372v-248.372l-384 384 384 384v-253.824c446.75-10.48 427.588 303.792 313.862 509.824 280.71-303.414 221.1-789.57-313.862-775.628z" />
<glyph unicode="&#xe972;" glyph-name="users2" horiz-adv-x="1152" d="M768 189.388v52.78c70.498 39.728 128 138.772 128 237.832 0 159.058 0 288-192 288s-192-128.942-192-288c0-99.060 57.502-198.104 128-237.832v-52.78c-217.102-17.748-384-124.42-384-253.388h896c0 128.968-166.898 235.64-384 253.388zM327.196 164.672c55.31 36.15 124.080 63.636 199.788 80.414-15.054 17.784-28.708 37.622-40.492 59.020-30.414 55.234-46.492 116.058-46.492 175.894 0 86.042 0 167.31 30.6 233.762 29.706 64.504 83.128 104.496 159.222 119.488-16.914 76.48-61.94 126.75-181.822 126.75-192 0-192-128.942-192-288 0-99.060 57.502-198.104 128-237.832v-52.78c-217.102-17.748-384-124.42-384-253.388h279.006c14.518 12.91 30.596 25.172 48.19 36.672z" />
<glyph unicode="&#xea0a;" glyph-name="plus" d="M992 576h-352v352c0 17.672-14.328 32-32 32h-192c-17.672 0-32-14.328-32-32v-352h-352c-17.672 0-32-14.328-32-32v-192c0-17.672 14.328-32 32-32h352v-352c0-17.672 14.328-32 32-32h192c17.672 0 32 14.328 32 32v352h352c17.672 0 32 14.328 32 32v192c0 17.672-14.328 32-32 32z" />
<glyph unicode="&#xea0b;" glyph-name="minus" d="M0 544v-192c0-17.672 14.328-32 32-32h960c17.672 0 32 14.328 32 32v192c0 17.672-14.328 32-32 32h-960c-17.672 0-32-14.328-32-32z" />
</font>
</defs>
</svg>
